<svg version="1.1" preserveAspectRatio="none" xmlns="http://www.w3.org/2000/svg" width="500" height="500"
     viewBox="0 0 500 500">
  <rect width="100%" height="100%" fill="#5CB8FF" fill-opacity="1"/>
  <svg viewBox="1136.8986 968.4544 342.8815 351.8219" width="324.5378968733896" height="333" x="87.7311px" y="83.5px"
       xmlns="http://www.w3.org/2000/svg" xmlns:xlink="http://www.w3.org/1999/xlink" preserveAspectRatio="none">
    <defs></defs>
    <style>.companyName {fill:#FFFFFF;fill-opacity:1;}.icon1 {fill:#005477;fill-opacity:1;}.icon2
      {fill:#FFFFFF;fill-opacity:1;}.icon3 {fill:#0017EB;fill-opacity:1;}.icon3-str {stroke:#0017EB;stroke-opacity:1;}
    </style>
    <g opacity="1" transform="rotate(0 1136.8986 1200.2763)">
      <svg width="342.8815" height="120" x="1136.8986" y="1200.2763" version="1.1" preserveAspectRatio="none"
           viewBox="1.6 -29.6 85.72 30">
        <g transform="matrix(1 0 0 1 0 0)" class="companyName">
          <path id="id-D6z1nYkh3"
                d="M32.76-28.20L32.76-28.20Q33.08-27.60 33.14-27.12Q33.20-26.64 33.20-25.72L33.20-25.72L33.20-3.52Q33.20-0.76 31.68-0.28L31.68-0.28Q30.92-0.04 29.76-0.04Q28.60-0.04 27.92-0.24Q27.24-0.44 26.88-0.72Q26.52-1 26.32-1.52L26.32-1.52Q26.12-2.20 26.12-3.60L26.12-3.60L26.12-17Q25.12-15.76 23.20-13.06Q21.28-10.36 20.76-9.68Q20.24-9 20.04-8.74Q19.84-8.48 19.06-8.02Q18.28-7.56 17.38-7.56Q16.48-7.56 15.74-7.98Q15-8.40 14.68-8.80L14.68-8.80L14.36-9.24Q13.56-10.24 11.20-13.50Q8.84-16.76 8.64-17L8.64-17L8.64-3.52Q8.64-2.60 8.58-2.14Q8.52-1.68 8.20-1.12L8.20-1.12Q7.60-0.04 5.08-0.04L5.08-0.04Q2.64-0.04 2.04-1.12L2.04-1.12Q1.72-1.68 1.66-2.16Q1.60-2.64 1.60-3.60L1.60-3.60L1.60-25.80Q1.60-26.72 1.66-27.18Q1.72-27.64 2.04-28.24L2.04-28.24Q2.64-29.28 5.16-29.28L5.16-29.28Q6.24-29.28 7.02-29.02Q7.80-28.76 8.04-28.48L8.04-28.48L8.28-28.24L17.36-16.32Q24.16-25.32 26.44-28.20L26.44-28.20Q27.12-29.28 29.66-29.28Q32.20-29.28 32.76-28.20Z M54.72-7.68L54.72-7.68L55.44-8.20Q56.80-9 57.36-9L57.36-9Q58.60-9 60.04-6.76L60.04-6.76Q60.92-5.36 60.92-4.52Q60.92-3.68 60.38-3.12Q59.84-2.56 59.12-2.12Q58.40-1.68 57.74-1.28Q57.08-0.88 55.04-0.24Q53 0.40 51.10 0.40Q49.20 0.40 47.26-0.10Q45.32-0.60 43.26-1.78Q41.20-2.96 39.56-4.66Q37.92-6.36 36.86-9.02Q35.80-11.68 35.80-14.80Q35.80-17.92 36.84-20.46Q37.88-23 39.50-24.66Q41.12-26.32 43.20-27.44L43.20-27.44Q47.12-29.60 51.08-29.60L51.08-29.60Q52.96-29.60 54.90-29.02Q56.84-28.44 57.84-27.84L57.84-27.84L58.80-27.28Q59.52-26.84 59.92-26.56L59.92-26.56Q60.96-25.72 60.96-24.66Q60.96-23.60 60.12-22.44L60.12-22.44Q58.56-20.28 57.32-20.28L57.32-20.28Q56.60-20.28 55.28-21.16L55.28-21.16Q53.60-22.52 50.80-22.52L50.80-22.52Q48.20-22.52 45.68-20.72L45.68-20.72Q44.48-19.84 43.68-18.24Q42.88-16.64 42.88-14.62Q42.88-12.60 43.68-11Q44.48-9.40 45.72-8.48L45.72-8.48Q48.16-6.72 50.80-6.72L50.80-6.72Q52.04-6.72 53.14-7.04Q54.24-7.36 54.72-7.68Z M81.08-7.68L81.08-7.68L81.80-8.20Q83.16-9 83.72-9L83.72-9Q84.96-9 86.40-6.76L86.40-6.76Q87.28-5.36 87.28-4.52Q87.28-3.68 86.74-3.12Q86.20-2.56 85.48-2.12Q84.76-1.68 84.10-1.28Q83.44-0.88 81.40-0.24Q79.36 0.40 77.46 0.40Q75.56 0.40 73.62-0.10Q71.68-0.60 69.62-1.78Q67.56-2.96 65.92-4.66Q64.28-6.36 63.22-9.02Q62.16-11.68 62.16-14.80Q62.16-17.92 63.20-20.46Q64.24-23 65.86-24.66Q67.48-26.32 69.56-27.44L69.56-27.44Q73.48-29.60 77.44-29.60L77.44-29.60Q79.32-29.60 81.26-29.02Q83.20-28.44 84.20-27.84L84.20-27.84L85.16-27.28Q85.88-26.84 86.28-26.56L86.28-26.56Q87.32-25.72 87.32-24.66Q87.32-23.60 86.48-22.44L86.48-22.44Q84.92-20.28 83.68-20.28L83.68-20.28Q82.96-20.28 81.64-21.16L81.64-21.16Q79.96-22.52 77.16-22.52L77.16-22.52Q74.56-22.52 72.04-20.72L72.04-20.72Q70.84-19.84 70.04-18.24Q69.24-16.64 69.24-14.62Q69.24-12.60 70.04-11Q70.84-9.40 72.08-8.48L72.08-8.48Q74.52-6.72 77.16-6.72L77.16-6.72Q78.40-6.72 79.50-7.04Q80.60-7.36 81.08-7.68Z"/>
        </g>
      </svg>
    </g>
    <g opacity="1" transform="rotate(0 1222.619 968.4544)">
      <svg width="171.4407" height="191.8219" x="1222.619" y="968.4544" version="1.1" preserveAspectRatio="none"
           viewBox="28.5 20 143 160">
        <g transform="matrix(1 0 0 1 0 0)">
          <g>
            <path d="M42.9 84.5l7.2 6.7 48.5-34.8 52.5 35.4 5.2-7.9L98.5 45 42.9 84.5z" data-color="1"
                  class="icon1"></path>
            <path d="M99.3 70.9L58.9 99.5l8.9 5 31.6-22.3 30.9 21.4 8.1-6-38.6-26.4-.5-.3z" data-color="1"
                  class="icon1"></path>
            <path d="M99.6 20.3l-.5-.3-70.6 47.4 9.2 6.4L99 31.3l63.6 43.4.5.3 8.4-5.8-71.9-48.9z" data-color="1"
                  class="icon1"></path>
            <path d="M28.5 120.1v11.6L99 180l37-23.8V145l-36.9 23.7-70.6-48.6z" data-color="2" class="icon2"></path>
            <path d="M28.5 93.9v11.6L99 153.8l59.7-39.7v-11.3l-59.5 39.7c-.1 0-70.7-48.6-70.7-48.6z" data-color="2"
                  class="icon2"></path>
            <path d="M99.1 115.8L28.5 67.3v11.5l70 48 .5.3 72.4-46.4V69.1l-72.3 46.7z" data-color="2"
                  class="icon2"></path>
          </g>
        </g>
      </svg>
    </g>
  </svg>
</svg>